<svg width="512" height="512" viewBox="0 0 512 512" fill="none" xmlns="http://www.w3.org/2000/svg">
<rect width="512" height="512" rx="36" fill="#C9141D"/>
<g filter="url(#filter0_d)">
<path d="M96.2615 88.4158L392.733 384.887C398.358 390.513 401.518 398.143 401.518 406.098C401.518 414.054 398.358 421.684 392.733 427.31C387.106 432.933 379.476 436.092 371.521 436.092C363.566 436.092 355.936 432.933 350.309 427.31L277.888 353.641C273.148 348.828 270.489 342.346 270.484 335.592V331.142C270.485 327.731 269.808 324.355 268.493 321.208C267.178 318.061 265.251 315.207 262.824 312.811L253.473 304.177C250.299 301.248 246.439 299.164 242.249 298.118C238.058 297.072 233.672 297.097 229.494 298.19C222.905 299.909 215.98 299.876 209.408 298.093C202.836 296.311 196.844 292.84 192.027 288.027L123.283 219.274C82.5014 178.492 67.4939 116.91 96.2615 88.4158Z" fill="white"/>
<path d="M96.2615 88.4158L392.733 384.887C398.358 390.513 401.518 398.143 401.518 406.098C401.518 414.054 398.358 421.684 392.733 427.31C387.106 432.933 379.476 436.092 371.521 436.092C363.566 436.092 355.936 432.933 350.309 427.31L277.888 353.641C273.148 348.828 270.489 342.346 270.484 335.592V331.142C270.485 327.731 269.808 324.355 268.493 321.208C267.178 318.061 265.251 315.207 262.824 312.811L253.473 304.177C250.299 301.248 246.439 299.164 242.249 298.118C238.058 297.072 233.672 297.097 229.494 298.19C222.905 299.909 215.98 299.876 209.408 298.093C202.836 296.311 196.844 292.84 192.027 288.027L123.283 219.274C82.5014 178.492 67.4939 116.91 96.2615 88.4158Z" stroke="white" stroke-width="32" stroke-linejoin="round"/>
</g>
<g filter="url(#filter1_d)">
<path d="M210.937 346.125L130.694 426.819C124.658 432.853 116.472 436.243 107.937 436.243C99.4025 436.243 91.2169 432.853 85.1809 426.819V426.819C79.1467 420.783 75.7568 412.597 75.7568 404.062C75.7568 395.528 79.1467 387.342 85.1809 381.306L153 313.938M371.875 75.75L309.713 137.912C304.929 142.695 301.135 148.372 298.546 154.621C295.957 160.87 294.625 167.568 294.625 174.332V186.29C294.625 187.982 294.292 189.657 293.644 191.22C292.997 192.783 292.048 194.203 290.851 195.399L281.75 204.5L371.875 75.75ZM307.5 230.25L316.601 221.149C317.797 219.952 319.217 219.003 320.78 218.355C322.343 217.708 324.018 217.375 325.71 217.375H337.668C344.432 217.375 351.13 216.043 357.379 213.454C363.628 210.865 369.305 207.071 374.088 202.287L436.25 140.125L307.5 230.25ZM404.062 107.938L339.687 172.312L404.062 107.938Z" stroke="white" stroke-width="32" stroke-linecap="round" stroke-linejoin="round"/>
</g>
<defs>
<filter id="filter0_d" x="53.384" y="68.4158" width="376.134" height="403.676" filterUnits="userSpaceOnUse" color-interpolation-filters="sRGB">
<feFlood flood-opacity="0" result="BackgroundImageFix"/>
<feColorMatrix in="SourceAlpha" type="matrix" values="0 0 0 0 0 0 0 0 0 0 0 0 0 0 0 0 0 0 127 0"/>
<feOffset dy="8"/>
<feGaussianBlur stdDeviation="6"/>
<feColorMatrix type="matrix" values="0 0 0 0 0 0 0 0 0 0 0 0 0 0 0 0 0 0 0.2 0"/>
<feBlend mode="normal" in2="BackgroundImageFix" result="effect1_dropShadow"/>
<feBlend mode="normal" in="SourceGraphic" in2="effect1_dropShadow" result="shape"/>
</filter>
<filter id="filter1_d" x="47.7568" y="55.75" width="416.493" height="416.493" filterUnits="userSpaceOnUse" color-interpolation-filters="sRGB">
<feFlood flood-opacity="0" result="BackgroundImageFix"/>
<feColorMatrix in="SourceAlpha" type="matrix" values="0 0 0 0 0 0 0 0 0 0 0 0 0 0 0 0 0 0 127 0"/>
<feOffset dy="8"/>
<feGaussianBlur stdDeviation="6"/>
<feColorMatrix type="matrix" values="0 0 0 0 0 0 0 0 0 0 0 0 0 0 0 0 0 0 0.2 0"/>
<feBlend mode="normal" in2="BackgroundImageFix" result="effect1_dropShadow"/>
<feBlend mode="normal" in="SourceGraphic" in2="effect1_dropShadow" result="shape"/>
</filter>
</defs>
</svg>
